<svg xmlns="http://www.w3.org/2000/svg" xmlns:xlink="http://www.w3.org/1999/xlink" version="1.1" id="Layer_1" x="0" y="0" viewBox="0 0 108 108" xml:space="preserve" enable-background="new 0 0 108 108">
  <style type="text/css">
    
	.st0{fill:#020202;}

  </style>
  <path class="st0" d="M59.7 54l47.2-47.2c1.6-1.6 1.6-4.1 0-5.7 -1.6-1.6-4.1-1.6-5.7 0L54 48.3 6.8 1.2c-1.6-1.6-4.1-1.6-5.7 0 -1.6 1.6-1.6 4.1 0 5.7L48.3 54 1.2 101.2c-1.6 1.6-1.6 4.1 0 5.7C2 107.6 3 108 4 108c1 0 2-0.4 2.8-1.2L54 59.7l47.2 47.2c0.8 0.8 1.8 1.2 2.8 1.2s2-0.4 2.8-1.2c1.6-1.6 1.6-4.1 0-5.7L59.7 54z"/>
</svg>
